<svg xmlns="http://www.w3.org/2000/svg" version="1.1" xmlns:xlink="http://www.w3.org/1999/xlink" xmlns:svgjs="http://svgjs.dev/svgjs" width="1500" height="1500" viewBox="0 0 1500 1500"><rect width="1500" height="1500" fill="#ffffff"></rect><g transform="matrix(0.6666666666666666,0,0,0.6666666666666666,250.00001779244434,187.66666666666674)"><svg viewBox="0 0 320 360" data-background-color="#f9b572" preserveAspectRatio="xMidYMid meet" height="1687" width="1500" xmlns="http://www.w3.org/2000/svg" xmlns:xlink="http://www.w3.org/1999/xlink"><g id="tight-bounds" transform="matrix(1,0,0,1,0.000005693582238563977,0)"><svg viewBox="0 0 320 360" height="360" width="320"><g><svg></svg></g><g><svg viewBox="0 0 320 360" height="360" width="320"><g><path transform="translate(-8.74414,11.24127) scale(3.37517,3.37517)" d="M89.9 29.89c-2.6-3.17-7.52-4.8-12.74-6.52-2.24-0.74-4.55-1.51-6.81-2.44-2.28-0.94-4.52-2.15-6.7-3.31-4.43-2.38-9.01-4.84-13.66-4.84-4.64 0-9.22 2.46-13.65 4.84-2.18 1.17-4.43 2.38-6.71 3.32-2.25 0.93-4.57 1.69-6.81 2.44-5.22 1.73-10.14 3.36-12.74 6.52-3.47 4.23-3.39 10.5-3.31 17.13 0.01 1 0.02 1.99 0.02 2.97 0 0.98-0.01 1.97-0.03 2.97-0.08 6.64-0.16 12.9 3.31 17.14 2.6 3.16 7.52 4.79 12.73 6.52 2.24 0.74 4.55 1.51 6.82 2.44 2.28 0.94 4.52 2.14 6.69 3.31 4.44 2.39 9.02 4.85 13.66 4.85 4.65 0 9.23-2.46 13.66-4.84 2.18-1.17 4.42-2.38 6.7-3.31 2.25-0.93 4.55-1.69 6.78-2.43 5.25-1.74 10.17-3.37 12.77-6.53 3.47-4.23 3.39-10.5 3.31-17.13-0.01-1.01-0.03-2-0.03-2.98 0-0.98 0.01-1.97 0.03-2.96 0.11-6.66 0.19-12.93-3.29-17.16zM93.12 27.25c-4.66-5.68-13.57-7.03-21.18-10.17-6.81-2.8-13.74-8.47-21.94-8.47-8.2 0-15.13 5.67-21.94 8.47-7.62 3.14-16.52 4.49-21.18 10.17-5.06 6.16-4.24 14.85-4.24 22.75 0 7.89-0.82 16.59 4.23 22.75 4.66 5.68 13.57 7.03 21.18 10.17 6.81 2.81 13.74 8.47 21.94 8.47 8.2 0 15.13-5.66 21.94-8.47 7.62-3.14 16.52-4.49 21.18-10.17 5.05-6.16 4.23-14.85 4.23-22.75 0.02-7.9 0.84-16.59-4.22-22.75zM94.4 52.94c0.09 6.88 0.17 13.35-3.58 17.92-2.82 3.43-7.9 5.12-13.28 6.9-2.24 0.74-4.53 1.5-6.73 2.41-2.22 0.91-4.43 2.1-6.57 3.25-4.58 2.46-9.29 4.99-14.24 4.99-4.95 0-9.66-2.53-14.22-4.98-2.15-1.16-4.37-2.35-6.59-3.26-2.23-0.92-4.52-1.68-6.74-2.41-5.39-1.78-10.47-3.47-13.28-6.9-3.74-4.56-3.66-11.04-3.58-17.9 0.01-1 0.03-1.98 0.03-2.96 0-0.98-0.01-1.96-0.02-2.96-0.09-6.86-0.17-13.34 3.58-17.9 2.82-3.43 7.9-5.11 13.28-6.9 2.23-0.74 4.52-1.5 6.74-2.41 2.22-0.92 4.44-2.11 6.59-3.26 4.56-2.45 9.28-4.99 14.22-4.99 4.94 0 9.66 2.53 14.22 4.98 2.15 1.16 4.37 2.35 6.59 3.26 2.22 0.92 4.52 1.67 6.73 2.41 5.38 1.78 10.47 3.47 13.28 6.9 3.75 4.57 3.67 11.04 3.58 17.9-0.01 1.01-0.03 1.99-0.03 2.96 0 0.98 0.01 1.96 0.02 2.95z" fill="#000000" fill-rule="nonzero" stroke="none" stroke-width="1" stroke-linecap="butt" stroke-linejoin="miter" stroke-miterlimit="10" stroke-dasharray="" stroke-dashoffset="0" font-family="none" font-weight="none" font-size="none" text-anchor="none" style="mix-blend-mode: normal" data-fill-palette-color="tertiary"></path></g><g transform="matrix(1,0,0,1,64,155.93526371379434)"><svg viewBox="0 0 192 48.129472572411316" height="48.129472572411316" width="192"><g><svg viewBox="0 0 291.4697027797412 73.06397430013767" height="48.129472572411316" width="192"><g transform="matrix(1,0,0,1,99.46970277974121,14.503533731069297)"><svg viewBox="0 0 192 44.05690683799908" height="44.05690683799908" width="192"><g id="textblocktransform"><svg viewBox="0 0 192 44.05690683799908" height="44.05690683799908" width="192" id="textblock"><g><svg viewBox="0 0 192 44.05690683799908" height="44.05690683799908" width="192"><g transform="matrix(1,0,0,1,0,0)"><svg width="192" viewBox="2.5 -37.5 217.88 50" height="44.05690683799908" data-palette-color="#faf8ed"><path d="M24-20.95L28.85-20.9 24.75-2.1Q24.15 0.75 23.18 3.08 22.2 5.4 20.75 7 19.3 8.6 17.32 9.47 15.35 10.35 12.75 10.35L12.75 10.35Q10.5 10.35 9.03 9.75 7.55 9.15 6.65 8.2 5.75 7.25 5.38 6.03 5 4.8 5 3.5L5 3.5Q5 2.2 5.35 0.98 5.7-0.25 6.5-1.23 7.3-2.2 8.58-2.8 9.85-3.4 11.7-3.4L11.7-3.4Q12.2-3.4 12.95-3.3 13.7-3.2 14.38-2.88 15.05-2.55 15.53-1.88 16-1.2 16-0.05L16-0.05Q16 0.85 15.7 1.95L15.7 1.95Q15 1 14.1 0.55 13.2 0.1 12.25 0.1L12.25 0.1Q10.75 0.1 9.58 1.25 8.4 2.4 8.4 4.3L8.4 4.3Q8.4 6.15 9.55 7.28 10.7 8.4 12.45 8.4L12.45 8.4Q13.3 8.4 14.18 8.08 15.05 7.75 15.88 6.98 16.7 6.2 17.38 4.93 18.05 3.65 18.5 1.7L18.5 1.7 21.05-9.95Q19.35-7.7 17.15-6.58 14.95-5.45 12.4-5.45L12.4-5.45Q10.2-5.45 8.38-6.3 6.55-7.15 5.25-8.72 3.95-10.3 3.23-12.6 2.5-14.9 2.5-17.85L2.5-17.85Q2.5-21.65 3.75-25.2 5-28.75 7.33-31.5 9.65-34.25 12.98-35.88 16.3-37.5 20.45-37.5L20.45-37.5Q22.2-37.5 23.9-37.15 25.6-36.8 26.93-36 28.25-35.2 29.05-33.88 29.85-32.55 29.85-30.6L29.85-30.6Q29.85-28.85 29.05-27.53 28.25-26.2 26.35-26.2L26.35-26.2Q26.05-26.2 25.6-26.25 25.15-26.3 24.68-26.45 24.2-26.6 23.73-26.85 23.25-27.1 22.9-27.5L22.9-27.5Q23.05-27.5 23.5-27.68 23.95-27.85 24.48-28.35 25-28.85 25.4-29.68 25.8-30.5 25.8-31.8L25.8-31.8Q25.8-33.65 24.83-34.68 23.85-35.7 21.8-35.7L21.8-35.7Q19-35.7 16.57-34.13 14.15-32.55 12.35-30 10.55-27.45 9.53-24.23 8.5-21 8.5-17.7L8.5-17.7Q8.5-13.8 10-11.38 11.5-8.95 14.4-8.95L14.4-8.95Q17.55-8.95 19.98-12 22.4-15.05 24-20.95L24-20.95ZM38.8-12.85L38.8-12.85Q37.45-12.75 36.6-12.3 35.75-11.85 35.25-11.15 34.75-10.45 34.57-9.6 34.4-8.75 34.4-7.95L34.4-7.95Q34.4-6.45 34.87-5.53 35.35-4.6 36.05-4.08 36.75-3.55 37.62-3.38 38.5-3.2 39.35-3.2L39.35-3.2Q41.5-3.2 43.05-4.05 44.6-4.9 45.62-6.23 46.65-7.55 47.15-9.18 47.65-10.8 47.65-12.4L47.65-12.4Q47.65-13.95 47.17-15.38 46.7-16.8 45.7-17.98 44.7-19.15 43.17-19.93 41.65-20.7 39.5-20.9L39.5-20.9Q42-21.5 43.87-22.55 45.75-23.6 47.02-24.88 48.3-26.15 48.92-27.58 49.55-29 49.55-30.3L49.55-30.3Q49.55-32.25 48.37-33.6 47.2-34.95 45-34.95L45-34.95Q42.5-34.95 41.17-33.68 39.85-32.4 39.85-30.8L39.85-30.8Q39.85-29.9 40.32-28.98 40.8-28.05 41.8-27.3L41.8-27.3Q40.95-26.5 40.07-26.13 39.2-25.75 38.45-25.75L38.45-25.75Q37.15-25.75 36.27-26.8 35.4-27.85 35.4-29.75L35.4-29.75Q35.4-31.65 36.27-33.1 37.15-34.55 38.6-35.52 40.05-36.5 41.85-36.98 43.65-37.45 45.55-37.45L45.55-37.45Q47.25-37.45 48.85-37 50.45-36.55 51.7-35.65 52.95-34.75 53.7-33.38 54.45-32 54.45-30.15L54.45-30.15Q54.45-27.35 52.62-24.83 50.8-22.3 47.6-20.85L47.6-20.85Q50.95-19.4 52.42-16.98 53.9-14.55 53.9-11.85L53.9-11.85Q53.9-9.65 52.82-7.48 51.75-5.3 49.87-3.58 48-1.85 45.42-0.78 42.85 0.3 39.85 0.3L39.85 0.3Q38.75 0.3 37.05 0.05 35.35-0.2 33.75-1.07 32.15-1.95 31-3.63 29.85-5.3 29.85-8.15L29.85-8.15Q29.85-11.35 31.37-13.3 32.9-15.25 35.45-15.25L35.45-15.25Q35.9-15.25 36.42-15.18 36.95-15.1 37.42-14.83 37.9-14.55 38.27-14.08 38.65-13.6 38.8-12.85ZM93.34-9L94.49-8.5Q93.49-6.25 91.89-4.53 90.29-2.8 88.34-1.6 86.39-0.4 84.14 0.2 81.89 0.8 79.59 0.8L79.59 0.8Q74.69 0.8 71.99-2.13 69.29-5.05 69.29-11.45L69.29-11.45Q69.29-13.7 69.67-16.53 70.04-19.35 70.89-22.23 71.74-25.1 73.09-27.85 74.44-30.6 76.39-32.75 78.34-34.9 80.97-36.2 83.59-37.5 86.94-37.5L86.94-37.5Q88.59-37.5 90.09-37.13 91.59-36.75 92.69-35.95 93.79-35.15 94.44-33.85 95.09-32.55 95.09-30.7L95.09-30.7Q95.09-28.8 94.29-27.5 93.49-26.2 91.59-26.2L91.59-26.2Q90.99-26.2 90.42-26.43 89.84-26.65 89.49-27.1L89.49-27.1Q90.19-27.5 90.92-29 91.64-30.5 91.64-32.35L91.64-32.35Q91.64-34 90.67-34.85 89.69-35.7 87.94-35.7L87.94-35.7Q85.94-35.7 84.24-34.65 82.54-33.6 81.14-31.8 79.74-30 78.67-27.65 77.59-25.3 76.84-22.65 76.09-20 75.72-17.28 75.34-14.55 75.34-12.05L75.34-12.05Q75.34-10.3 75.59-8.68 75.84-7.05 76.67-5.78 77.49-4.5 79.04-3.75 80.59-3 83.14-3L83.14-3Q86.59-3 88.99-4.48 91.39-5.95 93.34-9L93.34-9ZM98.59-34.3L103.79-35 97.94-8Q97.69-7 97.69-5.75L97.69-5.75Q97.69-4.9 97.99-4.2 98.29-3.5 99.24-3.5L99.24-3.5Q100.44-3.5 101.67-4.95 102.89-6.4 103.99-8.95L103.99-8.95 105.84-8.95Q104.64-5.8 103.44-3.98 102.24-2.15 101.12-1.2 99.99-0.25 98.97 0.03 97.94 0.3 97.14 0.3L97.14 0.3Q95.84 0.3 94.99-0.15 94.14-0.6 93.64-1.35 93.14-2.1 92.92-3.1 92.69-4.1 92.69-5.25L92.69-5.25Q92.69-6.15 92.81-7.1 92.94-8.05 93.14-8.95L93.14-8.95 98.59-34.3ZM116.64-25.25L116.64-25.25Q119.64-25.25 120.94-23.23 122.24-21.2 122.29-17.35L122.29-17.35Q126.74-17.35 130.49-20.35L130.49-20.35 130.94-19Q129.54-17.4 127.21-16.32 124.89-15.25 122.19-14.9L122.19-14.9Q121.94-11.65 121.09-8.88 120.24-6.1 118.84-4.05 117.44-2 115.54-0.85 113.64 0.3 111.34 0.3L111.34 0.3Q109.69 0.3 108.26-0.13 106.84-0.55 105.79-1.5 104.74-2.45 104.14-3.95 103.54-5.45 103.54-7.6L103.54-7.6Q103.54-9.05 103.79-10.9 104.04-12.75 104.64-14.73 105.24-16.7 106.21-18.57 107.19-20.45 108.66-21.95 110.14-23.45 112.09-24.35 114.04-25.25 116.64-25.25ZM113.24-3.5L113.24-3.5Q114.34-3.5 115.41-4.28 116.49-5.05 117.36-6.5 118.24-7.95 118.86-10.03 119.49-12.1 119.74-14.75L119.74-14.75Q118.49-14.75 118.11-15.33 117.74-15.9 117.74-16.8L117.74-16.8Q117.74-18.1 118.34-18.68 118.94-19.25 119.89-19.35L119.89-19.35Q119.69-21.1 118.91-21.8 118.14-22.5 116.89-22.5L116.89-22.5Q115.64-22.5 114.56-21.8 113.49-21.1 112.61-19.98 111.74-18.85 111.06-17.38 110.39-15.9 109.94-14.35 109.49-12.8 109.26-11.28 109.04-9.75 109.04-8.5L109.04-8.5Q109.04-5.9 109.96-4.7 110.89-3.5 113.24-3.5ZM126.29-23.25L126.64-25 128.28-25 129.78-31.9 134.99-32.6 133.34-25 137.19-25 136.84-23.25 132.94-23.25 129.69-8Q129.59-7.6 129.46-7 129.34-6.4 129.34-5.85L129.34-5.85Q129.34-4.95 129.71-4.23 130.09-3.5 131.24-3.5L131.24-3.5Q132.59-3.5 134.03-4.95 135.49-6.4 136.74-8.95L136.74-8.95 138.59-8.95Q137.28-6.2 135.99-4.4 134.69-2.6 133.49-1.55 132.28-0.5 131.16-0.1 130.03 0.3 129.14 0.3L129.14 0.3Q127.74 0.3 126.84-0.18 125.94-0.65 125.41-1.43 124.89-2.2 124.66-3.23 124.44-4.25 124.44-5.3L124.44-5.3Q124.44-6.25 124.59-7.23 124.74-8.2 124.89-8.95L124.89-8.95 127.94-23.25 126.29-23.25ZM153.88-5.95L153.88-5.95Q153.88-4.9 154.18-4.2 154.48-3.5 155.38-3.5L155.38-3.5Q157.73-3.5 160.08-8.95L160.08-8.95 161.93-8.95Q160.73-5.8 159.53-3.95 158.33-2.1 157.21-1.18 156.08-0.25 155.11 0.03 154.13 0.3 153.38 0.3L153.38 0.3Q150.78 0.3 149.68-1.33 148.58-2.95 148.58-5.35L148.58-5.35Q148.58-7 148.96-8.8 149.33-10.6 149.78-12.35 150.23-14.1 150.61-15.73 150.98-17.35 150.98-18.7L150.98-18.7Q150.98-19.95 150.53-20.7 150.08-21.45 148.78-21.45L148.78-21.45Q145.58-21.45 143.23-16.1L143.23-16.1 139.78 0 134.78 0 142.13-34.3 147.28-35 144.33-21.25Q145.28-22.55 146.23-23.35 147.18-24.15 148.06-24.58 148.93-25 149.71-25.13 150.48-25.25 151.13-25.25L151.13-25.25Q152.63-25.25 153.63-24.8 154.63-24.35 155.23-23.58 155.83-22.8 156.06-21.78 156.28-20.75 156.28-19.6L156.28-19.6Q156.28-17.95 155.91-16.15 155.53-14.35 155.08-12.6 154.63-10.85 154.26-9.15 153.88-7.45 153.88-5.95ZM163.88-32.2L163.88-32.2Q163.88-33.55 164.83-34.55 165.78-35.55 167.18-35.55L167.18-35.55Q168.53-35.55 169.53-34.55 170.53-33.55 170.53-32.2L170.53-32.2Q170.53-30.8 169.53-29.85 168.53-28.9 167.18-28.9L167.18-28.9Q165.78-28.9 164.83-29.85 163.88-30.8 163.88-32.2ZM163.48-25L168.53-25 164.88-8Q164.63-7 164.63-5.75L164.63-5.75Q164.63-4.9 164.93-4.2 165.23-3.5 166.18-3.5L166.18-3.5Q167.38-3.5 168.61-4.95 169.83-6.4 170.93-8.95L170.93-8.95 172.78-8.95Q171.58-5.8 170.38-3.98 169.18-2.15 168.06-1.2 166.93-0.25 165.91 0.03 164.88 0.3 164.08 0.3L164.08 0.3Q162.78 0.3 161.93-0.15 161.08-0.6 160.58-1.35 160.08-2.1 159.86-3.1 159.63-4.1 159.63-5.25L159.63-5.25Q159.63-6.15 159.76-7.1 159.88-8.05 160.08-8.95L160.08-8.95 163.48-25ZM174.28-25L179.33-25 178.53-21.25Q179.48-22.55 180.43-23.35 181.38-24.15 182.25-24.58 183.13-25 183.9-25.13 184.68-25.25 185.33-25.25L185.33-25.25Q186.83-25.25 187.83-24.8 188.83-24.35 189.43-23.58 190.03-22.8 190.25-21.78 190.48-20.75 190.48-19.6L190.48-19.6Q190.48-17.95 190.1-16.15 189.73-14.35 189.28-12.6 188.83-10.85 188.45-9.15 188.08-7.45 188.08-5.95L188.08-5.95Q188.08-4.9 188.38-4.2 188.68-3.5 189.58-3.5L189.58-3.5Q191.93-3.5 194.28-8.95L194.28-8.95 196.13-8.95Q194.93-5.8 193.73-3.95 192.53-2.1 191.4-1.18 190.28-0.25 189.3 0.03 188.33 0.3 187.58 0.3L187.58 0.3Q184.98 0.3 183.88-1.33 182.78-2.95 182.78-5.35L182.78-5.35Q182.78-7 183.15-8.8 183.53-10.6 183.98-12.35 184.43-14.1 184.8-15.73 185.18-17.35 185.18-18.7L185.18-18.7Q185.18-19.95 184.73-20.7 184.28-21.45 182.98-21.45L182.98-21.45Q179.88-21.45 177.43-16.1L177.43-16.1 173.98 0 168.98 0 174.28-25ZM211.08-25L216.08-25 210.98-1Q212.33-1.45 213.45-2.02 214.58-2.6 215.48-3.53 216.38-4.45 217.13-5.75 217.88-7.05 218.53-8.95L218.53-8.95 220.38-8.95Q219.48-6.3 218.5-4.63 217.53-2.95 216.33-1.88 215.13-0.8 213.7-0.2 212.28 0.4 210.58 0.8L210.58 0.8 209.93 4Q209.38 6.7 208.7 8.35 208.03 10 207.2 10.93 206.38 11.85 205.38 12.18 204.38 12.5 203.13 12.5L203.13 12.5Q200.83 12.5 199.23 11.48 197.63 10.45 197.63 8L197.63 8Q197.63 6.75 198.35 5.68 199.08 4.6 200.23 3.65 201.38 2.7 202.8 1.95 204.23 1.2 205.63 0.65L205.63 0.65 206.58-3.95Q205.28-2.55 203.6-1.68 201.93-0.8 200.08-0.8L200.08-0.8Q198.88-0.8 197.73-1.23 196.58-1.65 195.68-2.63 194.78-3.6 194.23-5.13 193.68-6.65 193.68-8.85L193.68-8.85Q193.68-11.2 194.5-14.05 195.33-16.9 196.93-19.4 198.53-21.9 200.93-23.58 203.33-25.25 206.48-25.25L206.48-25.25Q207.68-25.25 208.93-24.7 210.18-24.15 210.58-22.6L210.58-22.6 211.08-25ZM202.18-4.6L202.18-4.6Q202.88-4.6 203.73-4.98 204.58-5.35 205.35-5.98 206.13-6.6 206.78-7.48 207.43-8.35 207.73-9.4L207.73-9.4 210.08-20.35Q209.93-21.15 209.33-21.83 208.73-22.5 207.58-22.5L207.58-22.5Q205.53-22.5 203.93-21.13 202.33-19.75 201.23-17.78 200.13-15.8 199.58-13.55 199.03-11.3 199.03-9.55L199.03-9.55Q199.03-6.7 199.88-5.65 200.73-4.6 202.18-4.6ZM201.43 9.9L201.43 9.9Q202.83 9.9 203.58 8.3 204.33 6.7 204.88 4.1L204.88 4.1 205.23 2.5Q202.43 3.7 201 5.15 199.58 6.6 199.58 7.95L199.58 7.95Q199.58 8.8 200.05 9.35 200.53 9.9 201.43 9.9Z" opacity="1" transform="matrix(1,0,0,1,0,0)" fill="#ffffff" class="wordmark-text-0" data-fill-palette-color="quaternary" id="text-0"></path></svg></g></svg></g></svg></g></svg></g><g><svg viewBox="0 0 89.06892444105374 73.06397430013767" height="73.06397430013767" width="89.06892444105374"><g><svg xmlns="http://www.w3.org/2000/svg" xmlns:xlink="http://www.w3.org/1999/xlink" version="1.1" x="8" y="0" viewBox="1.9999917022431692 1.9997807334395898 28.0021163031284 28.00021926656041" enable-background="new 0 0 32 32" xml:space="preserve" height="73.06397430013767" width="73.06892444105374" class="icon-icon-0" data-fill-palette-color="quaternary" id="icon-0"><path d="M23.149 10.094c0.484 0 1.041-0.276 1.558-0.625-0.206-0.269-0.413-0.528-0.625-0.781-0.391 0.257-0.722 0.406-0.933 0.406-0.078 0-0.139-0.02-0.181-0.062-0.276-0.276 0.395-1.395 1.5-2.5 0.937-0.937 1.884-1.562 2.319-1.562 0.078 0 0.139 0.02 0.181 0.062 0.198 0.199-0.098 0.835-0.688 1.586 0.218 0.257 0.433 0.525 0.646 0.798 0.908-1.086 1.538-2.302 0.749-3.091-0.229-0.229-0.544-0.355-0.888-0.355-1.057 0-2.468 1.297-3.026 1.855-1.235 1.235-2.498 2.917-1.5 3.914C22.49 9.968 22.805 10.094 23.149 10.094z" fill="#ffffff" data-fill-palette-color="quaternary"></path><path d="M19.228 2.919c0.032 0.021 1.101 0.733 2.514 1.971 0.164-0.192 0.336-0.381 0.519-0.565 0.061-0.061 0.125-0.114 0.187-0.173-1.436-1.252-2.542-1.983-2.676-2.071-0.231-0.151-0.541-0.085-0.691 0.147C18.93 2.459 18.996 2.769 19.228 2.919z" fill="#ffffff" data-fill-palette-color="quaternary"></path><path d="M10.82 20.357L20.956 9.154c-0.034-1.217 0.681-2.79 2.012-4.122C24.27 3.73 25.813 3 27.018 3c0.584 0 1.089 0.171 1.45 0.532 0.973 0.973 0.565 3-0.867 4.79 0.197 0.278 0.391 0.56 0.579 0.851 0.788-0.923 1.37-1.942 1.642-2.939 0.382-1.4 0.152-2.611-0.647-3.409C28.636 2.285 27.89 2 27.018 2c-1.523 0-3.302 0.869-4.757 2.325-1.352 1.352-2.188 2.978-2.294 4.432l-9.886 10.926C10.327 19.913 10.572 20.145 10.82 20.357z" fill="#ffffff" data-fill-palette-color="quaternary"></path><path d="M9.466 23.15L3 29l5.8-6.41c-0.248-0.216-0.496-0.436-0.744-0.669l-5.798 6.408c-0.358 0.395-0.342 1.001 0.035 1.378C2.488 29.902 2.744 30 3 30c0.24 0 0.48-0.086 0.671-0.258l6.596-5.969C10 23.576 9.733 23.365 9.466 23.15z" fill="#ffffff" data-fill-palette-color="quaternary"></path><path d="M22.847 11.044L11.737 21.095c0.278 0.211 0.556 0.404 0.835 0.593l10.672-9.655c0.843-0.063 1.745-0.378 2.617-0.889-0.175-0.285-0.353-0.568-0.541-0.84-0.835 0.482-1.672 0.741-2.391 0.741C22.901 11.045 22.874 11.044 22.847 11.044z" fill="#ffffff" data-fill-palette-color="quaternary"></path><path d="M24.689 6.32c-0.074 0.07-0.147 0.138-0.221 0.212C24.29 6.71 24.128 6.887 23.975 7.063 26.464 9.758 29 13.581 29 18c0 3.208-1.87 5.774-5 6.863-4.462 1.554-11.479-0.064-17.108-7.174-0.17-0.215-0.485-0.254-0.703-0.081-0.216 0.171-0.253 0.485-0.081 0.703 4.568 5.77 10.061 8.088 14.535 8.087 1.336 0 2.583-0.207 3.685-0.59C27.879 24.572 30 21.653 30 18 30 13.201 27.311 9.141 24.689 6.32z" fill="#ffffff" data-fill-palette-color="quaternary"></path></svg></g></svg></g></svg></g></svg></g></svg></g><defs></defs></svg><rect width="320" height="360" fill="none" stroke="none" visibility="hidden"></rect></g></svg></g></svg>